<svg xmlns="http://www.w3.org/2000/svg" version="1.1" xmlns:xlink="http://www.w3.org/1999/xlink" xmlns:svgjs="http://svgjs.dev/svgjs" width="1440" height="560" preserveAspectRatio="none" viewBox="0 0 1440 560"><g mask="url(&quot;#SvgjsMask1031&quot;)" fill="none"><rect width="1440" height="560" x="0" y="0" fill="#3E3145"></rect><path d="M0,556.693C102.249,549.739,173.281,459.187,259.922,404.446C347.38,349.189,456.06,320.949,511.432,233.563C569.75,141.528,598.035,23.06,567.943,-81.658C538.772,-183.17,433.752,-237.05,355.735,-308.246C287.279,-370.717,230.679,-460.069,138.933,-473.163C48.763,-486.032,-20.268,-390.199,-110.027,-374.718C-218.093,-356.08,-348.489,-445.296,-432.349,-374.633C-512.821,-306.826,-465.236,-173.009,-473.874,-68.133C-481.918,29.532,-515.575,127.997,-481.307,219.806C-445.98,314.451,-366.444,383.486,-283.681,441.416C-198.332,501.155,-103.939,563.762,0,556.693" fill="#00578f"></path><path d="M1440 1143.335C1550.148 1136.566 1669.721 1116.077 1746.307 1036.622 1819.491 960.697 1805.853 840.85 1830.414 738.296 1849.834 657.208 1871.868 580.696 1875.4479999999999 497.392 1879.779 396.61400000000003 1919.511 277.973 1853.472 201.724 1787.435 125.47800000000001 1657.924 174.49200000000002 1563.979 137.767 1456.462 95.73700000000002 1378.912-57.71799999999996 1267.545-27.326000000000022 1156.917 2.8640000000000327 1163.289 169.589 1099.121 264.627 1045.152 344.55899999999997 951.402 393.786 921.341 485.428 888.495 585.56 893.25 694.694 925.095 795.149 959.566 903.887 1014.008 1011.922 1108.502 1075.8200000000002 1203.848 1140.2939999999999 1325.118 1150.395 1440 1143.335" fill="#007fd3"></path></g><defs><mask id="SvgjsMask1031"><rect width="1440" height="560" fill="#ffffff"></rect></mask></defs></svg>